{
  "accessors": [
    {
      "bufferView": 2,
      "componentType": 5126,
      "count": 65532,
      "max": [
        1.0337555408477783,
        2.808509349822998,
        0.4980703592300415
      ],
      "min": [
        -1.0791770219802856,
        -0.13055147230625153,
        -0.4836420714855194
      ],
      "type": "VEC3"
    },
    {
      "bufferView": 2,
      "byteOffset": 786384,
      "componentType": 5126,
      "count": 65532,
      "max": [
        0.9989062547683716,
        0.9500748515129089,
        0.9999979138374329
      ],
      "min": [
        -0.9734714031219482,
        -0.9993785619735718,
        -0.9996999502182007
      ],
      "type": "VEC3"
    },
    {
      "bufferView": 3,
      "componentType": 5126,
      "count": 65532,
      "max": [
        1.0,
        1.0,
        1.0,
        1.0
      ],
      "min": [
        0.0,
        0.0,
        0.0,
        1.0
      ],
      "type": "VEC4"
    },
    {
      "bufferView": 1,
      "componentType": 5126,
      "count": 65532,
      "max": [
        0.6376417279243469,
        0.998046875
      ],
      "min": [
        0.09246426820755005,
        0.05807795375585556
      ],
      "type": "VEC2"
    },
    {
      "bufferView": 0,
      "componentType": 5125,
      "count": 285183,
      "type": "SCALAR"
    },
    {
      "bufferView": 2,
      "byteOffset": 1572768,
      "componentType": 5126,
      "count": 65532,
      "max": [
        1.1196527481079102,
        2.8037352561950684,
        0.49224936962127686
      ],
      "min": [
        -1.0740143060684204,
        -0.35208380222320557,
        -0.4823671281337738
      ],
      "type": "VEC3"
    },
    {
      "bufferView": 2,
      "byteOffset": 2359152,
      "componentType": 5126,
      "count": 65532,
      "max": [
        0.9997348785400391,
        0.9370622634887695,
        0.9999958276748657
      ],
      "min": [
        -0.9992672801017761,
        -0.999713659286499,
        -0.999988317489624
      ],
      "type": "VEC3"
    },
    {
      "bufferView": 3,
      "byteOffset": 1048512,
      "componentType": 5126,
      "count": 65532,
      "max": [
        1.0,
        1.0,
        1.0,
        1.0
      ],
      "min": [
        0.0,
        0.0,
        0.0,
        1.0
      ],
      "type": "VEC4"
    },
    {
      "bufferView": 1,
      "byteOffset": 524256,
      "componentType": 5126,
      "count": 65532,
      "max": [
        0.635205864906311,
        0.9966713786125183
      ],
      "min": [
        0.019205791875720024,
        0.00195313454605639
      ],
      "type": "VEC2"
    },
    {
      "bufferView": 0,
      "byteOffset": 1140732,
      "componentType": 5125,
      "count": 322389,
      "type": "SCALAR"
    },
    {
      "bufferView": 2,
      "byteOffset": 3145536,
      "componentType": 5126,
      "count": 65532,
      "max": [
        0.8183099031448364,
        2.7469749450683594,
        0.3849790692329407
      ],
      "min": [
        -0.9950786828994751,
        -0.19466568529605865,
        -0.4659319519996643
      ],
      "type": "VEC3"
    },
    {
      "bufferView": 2,
      "byteOffset": 3931920,
      "componentType": 5126,
      "count": 65532,
      "max": [
        0.9999591112136841,
        0.9220159649848938,
        0.9999998807907104
      ],
      "min": [
        -0.9999931454658508,
        -0.9999048709869385,
        -0.9999909400939941
      ],
      "type": "VEC3"
    },
    {
      "bufferView": 3,
      "byteOffset": 2097024,
      "componentType": 5126,
      "count": 65532,
      "max": [
        1.0,
        1.0,
        1.0,
        1.0
      ],
      "min": [
        0.0,
        0.003921568859368563,
        0.0,
        1.0
      ],
      "type": "VEC4"
    },
    {
      "bufferView": 1,
      "byteOffset": 1048512,
      "componentType": 5126,
      "count": 65532,
      "max": [
        0.6338238716125488,
        0.9757642149925232
      ],
      "min": [
        0.04356733709573746,
        0.11871093511581421
      ],
      "type": "VEC2"
    },
    {
      "bufferView": 0,
      "byteOffset": 2430288,
      "componentType": 5125,
      "count": 329685,
      "type": "SCALAR"
    },
    {
      "bufferView": 2,
      "byteOffset": 4718304,
      "componentType": 5126,
      "count": 65532,
      "max": [
        0.7384543418884277,
        2.3330698013305664,
        0.20429566502571106
      ],
      "min": [
        -0.7611032724380493,
        -0.3089155852794647,
        -0.43149077892303467
      ],
      "type": "VEC3"
    },
    {
      "bufferView": 2,
      "byteOffset": 5504688,
      "componentType": 5126,
      "count": 65532,
      "max": [
        0.9993061423301697,
        0.7115490436553955,
        0.9999999403953552
      ],
      "min": [
        -0.9999995827674866,
        -0.9998000860214233,
        -0.9993301630020142
      ],
      "type": "VEC3"
    },
    {
      "bufferView": 3,
      "byteOffset": 3145536,
      "componentType": 5126,
      "count": 65532,
      "max": [
        1.0,
        1.0,
        1.0,
        1.0
      ],
      "min": [
        0.0,
        0.0,
        0.0,
        1.0
      ],
      "type": "VEC4"
    },
    {
      "bufferView": 1,
      "byteOffset": 1572768,
      "componentType": 5126,
      "count": 65532,
      "max": [
        0.6239486336708069,
        0.8232436180114746
      ],
      "min": [
        0.00920000672340393,
        0.0954563319683075
      ],
      "type": "VEC2"
    },
    {
      "bufferView": 0,
      "byteOffset": 3749028,
      "componentType": 5125,
      "count": 304911,
      "type": "SCALAR"
    },
    {
      "bufferView": 2,
      "byteOffset": 6291072,
      "componentType": 5126,
      "count": 65532,
      "max": [
        0.7173452377319336,
        2.462656021118164,
        0.2071605920791626
      ],
      "min": [
        -0.8167611360549927,
        -0.13129471242427826,
        -0.44245362281799316
      ],
      "type": "VEC3"
    },
    {
      "bufferView": 2,
      "byteOffset": 7077456,
      "componentType": 5126,
      "count": 65532,
      "max": [
        0.9991423487663269,
        0.7099478840827942,
        0.9999963045120239
      ],
      "min": [
        -0.9999770522117615,
        -0.9989311695098877,
        -0.9997028112411499
      ],
      "type": "VEC3"
    },
    {
      "bufferView": 3,
      "byteOffset": 4194048,
      "componentType": 5126,
      "count": 65532,
      "max": [
        1.0,
        1.0,
        1.0,
        1.0
      ],
      "min": [
        0.0,
        0.0,
        0.0,
        1.0
      ],
      "type": "VEC4"
    },
    {
      "bufferView": 1,
      "byteOffset": 2097024,
      "componentType": 5126,
      "count": 65532,
      "max": [
        0.6284236311912537,
        0.8647056818008423
      ],
      "min": [
        0.06280618906021118,
        0.11659931391477585
      ],
      "type": "VEC2"
    },
    {
      "bufferView": 0,
      "byteOffset": 4968672,
      "componentType": 5125,
      "count": 282519,
      "type": "SCALAR"
    },
    {
      "bufferView": 2,
      "byteOffset": 7863840,
      "componentType": 5126,
      "count": 65532,
      "max": [
        0.8752251863479614,
        2.6986653804779053,
        0.26710736751556396
      ],
      "min": [
        -0.9080590009689331,
        -0.3631187379360199,
        -0.4531978964805603
      ],
      "type": "VEC3"
    },
    {
      "bufferView": 2,
      "byteOffset": 8650224,
      "componentType": 5126,
      "count": 65532,
      "max": [
        0.9993278384208679,
        0.9303944706916809,
        0.9999597668647766
      ],
      "min": [
        -0.9996623396873474,
        -0.9998847246170044,
        -0.999988317489624
      ],
      "type": "VEC3"
    },
    {
      "bufferView": 3,
      "byteOffset": 5242560,
      "componentType": 5126,
      "count": 65532,
      "max": [
        1.0,
        1.0,
        1.0,
        1.0
      ],
      "min": [
        0.003921568859368563,
        0.003921568859368563,
        0.0,
        1.0
      ],
      "type": "VEC4"
    },
    {
      "bufferView": 1,
      "byteOffset": 2621280,
      "componentType": 5126,
      "count": 65532,
      "max": [
        0.6316339373588562,
        0.9533019661903381
      ],
      "min": [
        0.00195313454605639,
        0.041938066482543945
      ],
      "type": "VEC2"
    },
    {
      "bufferView": 0,
      "byteOffset": 6098748,
      "componentType": 5125,
      "count": 322794,
      "type": "SCALAR"
    },
    {
      "bufferView": 2,
      "byteOffset": 9436608,
      "componentType": 5126,
      "count": 65532,
      "max": [
        0.8217453956604004,
        2.7176480293273926,
        0.4306250214576721
      ],
      "min": [
        -0.9469141364097595,
        -0.07550837099552155,
        -0.4159065783023834
      ],
      "type": "VEC3"
    },
    {
      "bufferView": 2,
      "byteOffset": 10222992,
      "componentType": 5126,
      "count": 65532,
      "max": [
        0.9780728816986084,
        0.9069371223449707,
        0.9999802708625793
      ],
      "min": [
        -0.9999973773956299,
        -0.863092839717865,
        -0.9999909400939941
      ],
      "type": "VEC3"
    },
    {
      "bufferView": 3,
      "byteOffset": 6291072,
      "componentType": 5126,
      "count": 65532,
      "max": [
        1.0,
        1.0,
        1.0,
        1.0
      ],
      "min": [
        0.01568627543747425,
        0.01568627543747425,
        0.01568627543747425,
        1.0
      ],
      "type": "VEC4"
    },
    {
      "bufferView": 1,
      "byteOffset": 3145536,
      "componentType": 5126,
      "count": 65532,
      "max": [
        0.5893762111663818,
        0.9632358551025391
      ],
      "min": [
        0.08047731220722198,
        0.09585438668727875
      ],
      "type": "VEC2"
    },
    {
      "bufferView": 0,
      "byteOffset": 7389924,
      "componentType": 5125,
      "count": 290634,
      "type": "SCALAR"
    },
    {
      "bufferView": 2,
      "byteOffset": 11009376,
      "componentType": 5126,
      "count": 65532,
      "max": [
        1.0242598056793213,
        2.503267288208008,
        0.47308215498924255
      ],
      "min": [
        -0.9114973545074463,
        -0.35283419489860535,
        -0.39849400520324707
      ],
      "type": "VEC3"
    },
    {
      "bufferView": 2,
      "byteOffset": 11795760,
      "componentType": 5126,
      "count": 65532,
      "max": [
        0.9999998211860657,
        0.9494574069976807,
        0.9999799728393555
      ],
      "min": [
        -0.9383402466773987,
        -0.9996967315673828,
        -0.9942130446434021
      ],
      "type": "VEC3"
    },
    {
      "bufferView": 3,
      "byteOffset": 7339584,
      "componentType": 5126,
      "count": 65532,
      "max": [
        1.0,
        1.0,
        1.0,
        1.0
      ],
      "min": [
        0.0,
        0.0,
        0.0,
        1.0
      ],
      "type": "VEC4"
    },
    {
      "bufferView": 1,
      "byteOffset": 3669792,
      "componentType": 5126,
      "count": 65532,
      "max": [
        0.5624319314956665,
        0.9263430833816528
      ],
      "min": [
        0.017476726323366165,
        0.010118560865521431
      ],
      "type": "VEC2"
    },
    {
      "bufferView": 0,
      "byteOffset": 8552460,
      "componentType": 5125,
      "count": 325434,
      "type": "SCALAR"
    },
    {
      "bufferView": 2,
      "byteOffset": 12582144,
      "componentType": 5126,
      "count": 65532,
      "max": [
        1.1196527481079102,
        2.5417871475219727,
        0.49809008836746216
      ],
      "min": [
        -0.928260862827301,
        -0.35088229179382324,
        -0.40242671966552734
      ],
      "type": "VEC3"
    },
    {
      "bufferView": 2,
      "byteOffset": 13368528,
      "componentType": 5126,
      "count": 65532,
      "max": [
        0.9997348785400391,
        0.8604752421379089,
        0.9999954104423523
      ],
      "min": [
        -0.9683116674423218,
        -0.9999545216560364,
        -0.998648464679718
      ],
      "type": "VEC3"
    },
    {
      "bufferView": 3,
      "byteOffset": 8388096,
      "componentType": 5126,
      "count": 65532,
      "max": [
        1.0,
        1.0,
        1.0,
        1.0
      ],
      "min": [
        0.007843137718737125,
        0.007843137718737125,
        0.007843137718737125,
        1.0
      ],
      "type": "VEC4"
    },
    {
      "bufferView": 1,
      "byteOffset": 4194048,
      "componentType": 5126,
      "count": 65532,
      "max": [
        0.638268768787384,
        0.9373987913131714
      ],
      "min": [
        0.0206071138381958,
        0.003349613631144166
      ],
      "type": "VEC2"
    },
    {
      "bufferView": 0,
      "byteOffset": 9854196,
      "componentType": 5125,
      "count": 289464,
      "type": "SCALAR"
    },
    {
      "bufferView": 2,
      "byteOffset": 14154912,
      "componentType": 5126,
      "count": 45636,
      "max": [
        1.066060185432434,
        2.794529914855957,
        0.4754592180252075
      ],
      "min": [
        -1.0636651515960693,
        0.025122392922639847,
        -0.48001497983932495
      ],
      "type": "VEC3"
    },
    {
      "bufferView": 2,
      "byteOffset": 14702544,
      "componentType": 5126,
      "count": 45636,
      "max": [
        0.9990183115005493,
        0.8667553663253784,
        0.9999964237213135
      ],
      "min": [
        -0.9842918515205383,
        -0.9999545216560364,
        -0.9996062517166138
      ],
      "type": "VEC3"
    },
    {
      "bufferView": 3,
      "byteOffset": 9436608,
      "componentType": 5126,
      "count": 45636,
      "max": [
        1.0,
        1.0,
        1.0,
        1.0
      ],
      "min": [
        0.007843137718737125,
        0.007843137718737125,
        0.007843137718737125,
        1.0
      ],
      "type": "VEC4"
    },
    {
      "bufferView": 1,
      "byteOffset": 4718304,
      "componentType": 5126,
      "count": 45636,
      "max": [
        0.6346146464347839,
        0.9939230680465698
      ],
      "min": [
        0.1099557876586914,
        0.087336465716362
      ],
      "type": "VEC2"
    },
    {
      "bufferView": 0,
      "byteOffset": 11012052,
      "componentType": 5125,
      "count": 197685,
      "type": "SCALAR"
    }
  ],
  "asset": {
    "extras": {
      "author": "xymos (https://sketchfab.com/xymos)",
      "license": "CC-BY-4.0 (http://creativecommons.org/licenses/by/4.0/)",
      "source": "https://sketchfab.com/3d-models/tattoo-1e5ea2ecbf724d5f80bfdaf1655b1d55",
      "title": "Tattoo"
    },
    "generator": "Sketchfab-12.65.0",
    "version": "2.0"
  },
  "bufferViews": [
    {
      "buffer": 0,
      "byteLength": 11802792,
      "name": "floatBufferViews",
      "target": 34963
    },
    {
      "buffer": 0,
      "byteLength": 5083392,
      "byteOffset": 11802792,
      "byteStride": 8,
      "name": "floatBufferViews",
      "target": 34962
    },
    {
      "buffer": 0,
      "byteLength": 15250176,
      "byteOffset": 16886184,
      "byteStride": 12,
      "name": "floatBufferViews",
      "target": 34962
    },
    {
      "buffer": 0,
      "byteLength": 10166784,
      "byteOffset": 32136360,
      "byteStride": 16,
      "name": "floatBufferViews",
      "target": 34962
    }
  ],
  "buffers": [
    {
      "byteLength": 42303144,
      "uri": "scene.bin"
    }
  ],
  "images": [
    {
      "uri": "textures/DemoSoldier_baseColor.png"
    }
  ],
  "materials": [
    {
      "doubleSided": true,
      "name": "DemoSoldier",
      "pbrMetallicRoughness": {
        "baseColorTexture": {
          "index": 0
        },
        "metallicFactor": 0.0
      }
    }
  ],
  "meshes": [
    {
      "name": "DemoSoldier_DemoSoldier_0",
      "primitives": [
        {
          "attributes": {
            "COLOR_0": 2,
            "NORMAL": 1,
            "POSITION": 0,
            "TEXCOORD_0": 3
          },
          "indices": 4,
          "material": 0,
          "mode": 4
        }
      ]
    },
    {
      "name": "DemoSoldier_DemoSoldier_0",
      "primitives": [
        {
          "attributes": {
            "COLOR_0": 7,
            "NORMAL": 6,
            "POSITION": 5,
            "TEXCOORD_0": 8
          },
          "indices": 9,
          "material": 0,
          "mode": 4
        }
      ]
    },
    {
      "name": "DemoSoldier_DemoSoldier_0",
      "primitives": [
        {
          "attributes": {
            "COLOR_0": 12,
            "NORMAL": 11,
            "POSITION": 10,
            "TEXCOORD_0": 13
          },
          "indices": 14,
          "material": 0,
          "mode": 4
        }
      ]
    },
    {
      "name": "DemoSoldier_DemoSoldier_0",
      "primitives": [
        {
          "attributes": {
            "COLOR_0": 17,
            "NORMAL": 16,
            "POSITION": 15,
            "TEXCOORD_0": 18
          },
          "indices": 19,
          "material": 0,
          "mode": 4
        }
      ]
    },
    {
      "name": "DemoSoldier_DemoSoldier_0",
      "primitives": [
        {
          "attributes": {
            "COLOR_0": 22,
            "NORMAL": 21,
            "POSITION": 20,
            "TEXCOORD_0": 23
          },
          "indices": 24,
          "material": 0,
          "mode": 4
        }
      ]
    },
    {
      "name": "DemoSoldier_DemoSoldier_0",
      "primitives": [
        {
          "attributes": {
            "COLOR_0": 27,
            "NORMAL": 26,
            "POSITION": 25,
            "TEXCOORD_0": 28
          },
          "indices": 29,
          "material": 0,
          "mode": 4
        }
      ]
    },
    {
      "name": "DemoSoldier_DemoSoldier_0",
      "primitives": [
        {
          "attributes": {
            "COLOR_0": 32,
            "NORMAL": 31,
            "POSITION": 30,
            "TEXCOORD_0": 33
          },
          "indices": 34,
          "material": 0,
          "mode": 4
        }
      ]
    },
    {
      "name": "DemoSoldier_DemoSoldier_0",
      "primitives": [
        {
          "attributes": {
            "COLOR_0": 37,
            "NORMAL": 36,
            "POSITION": 35,
            "TEXCOORD_0": 38
          },
          "indices": 39,
          "material": 0,
          "mode": 4
        }
      ]
    },
    {
      "name": "DemoSoldier_DemoSoldier_0",
      "primitives": [
        {
          "attributes": {
            "COLOR_0": 42,
            "NORMAL": 41,
            "POSITION": 40,
            "TEXCOORD_0": 43
          },
          "indices": 44,
          "material": 0,
          "mode": 4
        }
      ]
    },
    {
      "name": "DemoSoldier_DemoSoldier_0",
      "primitives": [
        {
          "attributes": {
            "COLOR_0": 47,
            "NORMAL": 46,
            "POSITION": 45,
            "TEXCOORD_0": 48
          },
          "indices": 49,
          "material": 0,
          "mode": 4
        }
      ]
    }
  ],
  "nodes": [
    {
      "children": [
        1
      ],
      "matrix": [
        1.0,
        0.0,
        0.0,
        0.0,
        0.0,
        2.220446049250313e-16,
        -1.0,
        0.0,
        0.0,
        1.0,
        2.220446049250313e-16,
        0.0,
        0.0,
        0.0,
        0.0,
        1.0
      ],
      "name": "Sketchfab_model"
    },
    {
      "children": [
        2
      ],
      "matrix": [
        0.009999999776482582,
        0.0,
        0.0,
        0.0,
        0.0,
        0.0,
        0.009999999776482582,
        0.0,
        0.0,
        -0.009999999776482582,
        0.0,
        0.0,
        0.0,
        0.0,
        0.0,
        1.0
      ],
      "name": "9bea9325ff28420abd1d41e659ef3f02.fbx"
    },
    {
      "children": [
        3
      ],
      "name": "RootNode"
    },
    {
      "children": [
        4,
        5,
        6,
        7,
        8,
        9,
        10,
        11,
        12,
        13
      ],
      "name": "DemoSoldier"
    },
    {
      "mesh": 0,
      "name": "DemoSoldier_DemoSoldier_0"
    },
    {
      "mesh": 1,
      "name": "DemoSoldier_DemoSoldier_0"
    },
    {
      "mesh": 2,
      "name": "DemoSoldier_DemoSoldier_0"
    },
    {
      "mesh": 3,
      "name": "DemoSoldier_DemoSoldier_0"
    },
    {
      "mesh": 4,
      "name": "DemoSoldier_DemoSoldier_0"
    },
    {
      "mesh": 5,
      "name": "DemoSoldier_DemoSoldier_0"
    },
    {
      "mesh": 6,
      "name": "DemoSoldier_DemoSoldier_0"
    },
    {
      "mesh": 7,
      "name": "DemoSoldier_DemoSoldier_0"
    },
    {
      "mesh": 8,
      "name": "DemoSoldier_DemoSoldier_0"
    },
    {
      "mesh": 9,
      "name": "DemoSoldier_DemoSoldier_0"
    }
  ],
  "samplers": [
    {
      "magFilter": 9729,
      "minFilter": 9987,
      "wrapS": 10497,
      "wrapT": 10497
    }
  ],
  "scene": 0,
  "scenes": [
    {
      "name": "Sketchfab_Scene",
      "nodes": [
        0
      ]
    }
  ],
  "textures": [
    {
      "sampler": 0,
      "source": 0
    }
  ]
}
