{
  "accessors": [
    {
      "bufferView": 2,
      "componentType": 5126,
      "count": 463,
      "max": [
        0.1130402684211731,
        0.125731959939003,
        0.7521205544471741
      ],
      "min": [
        -0.03313810005784035,
        -0.036128729581832886,
        0.48869186639785767
      ],
      "type": "VEC3"
    },
    {
      "bufferView": 2,
      "byteOffset": 5556,
      "componentType": 5126,
      "count": 463,
      "max": [
        0.9997128844261169,
        0.9923610687255859,
        0.9988487362861633
      ],
      "min": [
        -0.9905042052268982,
        -0.9998111724853516,
        -0.9840012192726135
      ],
      "type": "VEC3"
    },
    {
      "bufferView": 1,
      "componentType": 5126,
      "count": 463,
      "max": [
        0.8903944492340088,
        0.9804074168205261
      ],
      "min": [
        0.02519264444708824,
        0.013504207134246826
      ],
      "type": "VEC2"
    },
    {
      "bufferView": 0,
      "componentType": 5125,
      "count": 1761,
      "type": "SCALAR"
    },
    {
      "bufferView": 2,
      "byteOffset": 11112,
      "componentType": 5126,
      "count": 2363,
      "max": [
        0.1132228672504425,
        0.12701450288295746,
        0.862332820892334
      ],
      "min": [
        -0.12804394960403442,
        -0.1582220494747162,
        0.001488944748416543
      ],
      "type": "VEC3"
    },
    {
      "bufferView": 2,
      "byteOffset": 39468,
      "componentType": 5126,
      "count": 2363,
      "max": [
        0.9995890855789185,
        0.999382495880127,
        0.9948912858963013
      ],
      "min": [
        -0.9997520446777344,
        -0.9999467730522156,
        -0.9976792335510254
      ],
      "type": "VEC3"
    },
    {
      "bufferView": 1,
      "byteOffset": 3704,
      "componentType": 5126,
      "count": 2363,
      "max": [
        0.9935911893844604,
        0.9144502878189087
      ],
      "min": [
        0.0059967958368361,
        0.251922607421875
      ],
      "type": "VEC2"
    },
    {
      "bufferView": 0,
      "byteOffset": 7044,
      "componentType": 5125,
      "count": 11712,
      "type": "SCALAR"
    },
    {
      "bufferView": 2,
      "byteOffset": 67824,
      "componentType": 5126,
      "count": 234,
      "max": [
        0.05565614998340607,
        0.08704327791929245,
        0.8786793947219849
      ],
      "min": [
        -0.053477682173252106,
        -0.04272400587797165,
        0.7874471545219421
      ],
      "type": "VEC3"
    },
    {
      "bufferView": 2,
      "byteOffset": 70632,
      "componentType": 5126,
      "count": 234,
      "max": [
        0.9973416924476624,
        0.9971126317977905,
        0.9964619874954224
      ],
      "min": [
        -0.9885870814323425,
        -0.9428263902664185,
        -0.9977679252624512
      ],
      "type": "VEC3"
    },
    {
      "bufferView": 1,
      "byteOffset": 22608,
      "componentType": 5126,
      "count": 234,
      "max": [
        0.9945525527000427,
        0.990371584892273
      ],
      "min": [
        0.14987410604953766,
        0.00801098346710205
      ],
      "type": "VEC2"
    },
    {
      "bufferView": 0,
      "byteOffset": 53892,
      "componentType": 5125,
      "count": 984,
      "type": "SCALAR"
    },
    {
      "bufferView": 2,
      "byteOffset": 73440,
      "componentType": 5126,
      "count": 456,
      "max": [
        0.060092344880104065,
        0.03159061446785927,
        0.820640504360199
      ],
      "min": [
        -0.025187954306602478,
        -0.053913675248622894,
        0.7838379144668579
      ],
      "type": "VEC3"
    },
    {
      "bufferView": 2,
      "byteOffset": 78912,
      "componentType": 5126,
      "count": 456,
      "max": [
        0.9959144592285156,
        0.9849408268928528,
        0.9982932806015015
      ],
      "min": [
        -0.9961928725242615,
        -0.9641576409339905,
        -0.9903433322906494
      ],
      "type": "VEC3"
    },
    {
      "bufferView": 1,
      "byteOffset": 24480,
      "componentType": 5126,
      "count": 456,
      "max": [
        0.9620813131332397,
        0.998779296875
      ],
      "min": [
        0.013763638213276863,
        0.011871516704559326
      ],
      "type": "VEC2"
    },
    {
      "bufferView": 0,
      "byteOffset": 57828,
      "componentType": 5125,
      "count": 1488,
      "type": "SCALAR"
    },
    {
      "bufferView": 2,
      "byteOffset": 84384,
      "componentType": 5126,
      "count": 56,
      "max": [
        0.054408907890319824,
        -0.03128696233034134,
        0.8058955073356628
      ],
      "min": [
        -0.0020395852625370026,
        -0.051027484238147736,
        0.7845728397369385
      ],
      "type": "VEC3"
    },
    {
      "bufferView": 2,
      "byteOffset": 85056,
      "componentType": 5126,
      "count": 56,
      "max": [
        0.2554921507835388,
        0.9160407185554504,
        0.4062305986881256
      ],
      "min": [
        -0.2637086808681488,
        -0.9162619709968567,
        -0.41075587272644043
      ],
      "type": "VEC3"
    },
    {
      "bufferView": 1,
      "byteOffset": 28128,
      "componentType": 5126,
      "count": 56,
      "max": [
        0.9717250466346741,
        0.9881742596626282
      ],
      "min": [
        0.32632943987846375,
        0.013794183731079102
      ],
      "type": "VEC2"
    },
    {
      "bufferView": 0,
      "byteOffset": 63780,
      "componentType": 5125,
      "count": 144,
      "type": "SCALAR"
    },
    {
      "bufferView": 2,
      "byteOffset": 85728,
      "componentType": 5126,
      "count": 328,
      "max": [
        0.05074313282966614,
        0.059923265129327774,
        0.8541224598884583
      ],
      "min": [
        -0.03072701394557953,
        -0.03788828104734421,
        0.7707235217094421
      ],
      "type": "VEC3"
    },
    {
      "bufferView": 2,
      "byteOffset": 89664,
      "componentType": 5126,
      "count": 328,
      "max": [
        0.9995980858802795,
        0.9609466791152954,
        0.8278480172157288
      ],
      "min": [
        -0.9789969325065613,
        -0.9839896559715271,
        -0.5115946531295776
      ],
      "type": "VEC3"
    },
    {
      "bufferView": 1,
      "byteOffset": 28576,
      "componentType": 5126,
      "count": 328,
      "max": [
        0.7279926538467407,
        0.8942397236824036
      ],
      "min": [
        0.037094682455062866,
        0.23483633995056152
      ],
      "type": "VEC2"
    },
    {
      "bufferView": 0,
      "byteOffset": 64356,
      "componentType": 5125,
      "count": 738,
      "type": "SCALAR"
    },
    {
      "bufferView": 2,
      "byteOffset": 93600,
      "componentType": 5126,
      "count": 783,
      "max": [
        0.10296446084976196,
        0.09411243349313736,
        0.521564781665802
      ],
      "min": [
        -0.10418471693992615,
        -0.0928240418434143,
        0.04661514610052109
      ],
      "type": "VEC3"
    },
    {
      "bufferView": 2,
      "byteOffset": 102996,
      "componentType": 5126,
      "count": 783,
      "max": [
        0.9995916485786438,
        0.998958170413971,
        0.9888526797294617
      ],
      "min": [
        -0.9987367987632751,
        -0.9998013377189636,
        -0.988516092300415
      ],
      "type": "VEC3"
    },
    {
      "bufferView": 1,
      "byteOffset": 31200,
      "componentType": 5126,
      "count": 783,
      "max": [
        0.9978942275047302,
        0.9889371991157532
      ],
      "min": [
        0.0027924010064452887,
        0.004211485385894775
      ],
      "type": "VEC2"
    },
    {
      "bufferView": 0,
      "byteOffset": 67308,
      "componentType": 5125,
      "count": 3858,
      "type": "SCALAR"
    },
    {
      "bufferView": 2,
      "byteOffset": 112392,
      "componentType": 5126,
      "count": 862,
      "max": [
        0.10991248488426208,
        0.08830576390028,
        0.0826340988278389
      ],
      "min": [
        -0.1103871762752533,
        -0.17147225141525269,
        -0.0034446867648512125
      ],
      "type": "VEC3"
    },
    {
      "bufferView": 2,
      "byteOffset": 122736,
      "componentType": 5126,
      "count": 862,
      "max": [
        0.999109148979187,
        0.9821745157241821,
        0.9990035891532898
      ],
      "min": [
        -0.9995747804641724,
        -0.9982290267944336,
        -0.9999793171882629
      ],
      "type": "VEC3"
    },
    {
      "bufferView": 1,
      "byteOffset": 37464,
      "componentType": 5126,
      "count": 862,
      "max": [
        0.9988861083984375,
        0.9952086806297302
      ],
      "min": [
        0.020187685266137123,
        0.00880444049835205
      ],
      "type": "VEC2"
    },
    {
      "bufferView": 0,
      "byteOffset": 82740,
      "componentType": 5125,
      "count": 2832,
      "type": "SCALAR"
    }
  ],
  "asset": {
    "extras": {
      "author": "Free Fire Model By Nityam (https://sketchfab.com/NityamGaming3D)",
      "license": "CC-BY-4.0 (http://creativecommons.org/licenses/by/4.0/)",
      "source": "https://sketchfab.com/3d-models/free-fire-tatto-bundle-635f7e93a7484c1fb89387e7b392c032",
      "title": "Free Fire Tatto Bundle"
    },
    "generator": "Sketchfab-12.67.0",
    "version": "2.0"
  },
  "bufferViews": [
    {
      "buffer": 0,
      "byteLength": 94068,
      "name": "floatBufferViews",
      "target": 34963
    },
    {
      "buffer": 0,
      "byteLength": 44360,
      "byteOffset": 94068,
      "byteStride": 8,
      "name": "floatBufferViews",
      "target": 34962
    },
    {
      "buffer": 0,
      "byteLength": 133080,
      "byteOffset": 138428,
      "byteStride": 12,
      "name": "floatBufferViews",
      "target": 34962
    }
  ],
  "buffers": [
    {
      "byteLength": 271508,
      "uri": "scene.bin"
    }
  ],
  "images": [
    {
      "uri": "textures/mat0.019_baseColor.png"
    },
    {
      "uri": "textures/mat0.020_baseColor.png"
    },
    {
      "uri": "textures/mat0.021_baseColor.png"
    },
    {
      "uri": "textures/mat0.022_baseColor.png"
    },
    {
      "uri": "textures/mat0.023_baseColor.png"
    },
    {
      "uri": "textures/mat0.024_baseColor.png"
    },
    {
      "uri": "textures/mat0.025_baseColor.png"
    },
    {
      "uri": "textures/mat0.026_baseColor.png"
    }
  ],
  "materials": [
    {
      "doubleSided": true,
      "name": "mat0.019",
      "pbrMetallicRoughness": {
        "baseColorTexture": {
          "index": 0
        },
        "metallicFactor": 0.0,
        "roughnessFactor": 0.8308205978495098
      }
    },
    {
      "doubleSided": true,
      "name": "mat0.020",
      "pbrMetallicRoughness": {
        "baseColorTexture": {
          "index": 1
        },
        "metallicFactor": 0.0,
        "roughnessFactor": 0.8308205978495098
      }
    },
    {
      "doubleSided": true,
      "name": "mat0.021",
      "pbrMetallicRoughness": {
        "baseColorTexture": {
          "index": 2
        },
        "metallicFactor": 0.0,
        "roughnessFactor": 0.8308205978495098
      }
    },
    {
      "doubleSided": true,
      "name": "mat0.022",
      "pbrMetallicRoughness": {
        "baseColorTexture": {
          "index": 3
        },
        "metallicFactor": 0.0,
        "roughnessFactor": 0.8308205978495098
      }
    },
    {
      "doubleSided": true,
      "name": "mat0.023",
      "pbrMetallicRoughness": {
        "baseColorTexture": {
          "index": 4
        },
        "metallicFactor": 0.0,
        "roughnessFactor": 0.8308205978495098
      }
    },
    {
      "doubleSided": true,
      "name": "mat0.024",
      "pbrMetallicRoughness": {
        "baseColorTexture": {
          "index": 5
        },
        "metallicFactor": 0.0,
        "roughnessFactor": 0.8308205978495098
      }
    },
    {
      "doubleSided": true,
      "name": "mat0.025",
      "pbrMetallicRoughness": {
        "baseColorTexture": {
          "index": 6
        },
        "metallicFactor": 0.0,
        "roughnessFactor": 0.8308205978495098
      }
    },
    {
      "doubleSided": true,
      "name": "mat0.026",
      "pbrMetallicRoughness": {
        "baseColorTexture": {
          "index": 7
        },
        "metallicFactor": 0.0,
        "roughnessFactor": 0.8308205978495098
      }
    }
  ],
  "meshes": [
    {
      "name": "Mesh_0025.rip_mat0.019_0",
      "primitives": [
        {
          "attributes": {
            "NORMAL": 1,
            "POSITION": 0,
            "TEXCOORD_0": 2
          },
          "indices": 3,
          "material": 0,
          "mode": 4
        }
      ]
    },
    {
      "name": "Mesh_0019.rip_mat0.020_0",
      "primitives": [
        {
          "attributes": {
            "NORMAL": 5,
            "POSITION": 4,
            "TEXCOORD_0": 6
          },
          "indices": 7,
          "material": 1,
          "mode": 4
        }
      ]
    },
    {
      "name": "Mesh_0017.rip_mat0.021_0",
      "primitives": [
        {
          "attributes": {
            "NORMAL": 9,
            "POSITION": 8,
            "TEXCOORD_0": 10
          },
          "indices": 11,
          "material": 2,
          "mode": 4
        }
      ]
    },
    {
      "name": "Mesh_0016.rip_mat0.022_0",
      "primitives": [
        {
          "attributes": {
            "NORMAL": 13,
            "POSITION": 12,
            "TEXCOORD_0": 14
          },
          "indices": 15,
          "material": 3,
          "mode": 4
        }
      ]
    },
    {
      "name": "Mesh_0044.rip_mat0.023_0",
      "primitives": [
        {
          "attributes": {
            "NORMAL": 17,
            "POSITION": 16,
            "TEXCOORD_0": 18
          },
          "indices": 19,
          "material": 4,
          "mode": 4
        }
      ]
    },
    {
      "name": "Mesh_0041.rip_mat0.024_0",
      "primitives": [
        {
          "attributes": {
            "NORMAL": 21,
            "POSITION": 20,
            "TEXCOORD_0": 22
          },
          "indices": 23,
          "material": 5,
          "mode": 4
        }
      ]
    },
    {
      "name": "Mesh_0023.rip_mat0.025_0",
      "primitives": [
        {
          "attributes": {
            "NORMAL": 25,
            "POSITION": 24,
            "TEXCOORD_0": 26
          },
          "indices": 27,
          "material": 6,
          "mode": 4
        }
      ]
    },
    {
      "name": "Mesh_0021.rip_mat0.026_0",
      "primitives": [
        {
          "attributes": {
            "NORMAL": 29,
            "POSITION": 28,
            "TEXCOORD_0": 30
          },
          "indices": 31,
          "material": 7,
          "mode": 4
        }
      ]
    }
  ],
  "nodes": [
    {
      "children": [
        1
      ],
      "matrix": [
        1.0,
        0.0,
        0.0,
        0.0,
        0.0,
        2.220446049250313e-16,
        -1.0,
        0.0,
        0.0,
        1.0,
        2.220446049250313e-16,
        0.0,
        0.0,
        0.0,
        0.0,
        1.0
      ],
      "name": "Sketchfab_model"
    },
    {
      "children": [
        2
      ],
      "matrix": [
        0.009999999776482582,
        0.0,
        0.0,
        0.0,
        0.0,
        0.0,
        0.009999999776482582,
        0.0,
        0.0,
        -0.009999999776482582,
        0.0,
        0.0,
        0.0,
        0.0,
        0.0,
        1.0
      ],
      "name": "998ad4181a85418487ab8650164881f3.fbx"
    },
    {
      "children": [
        3,
        5,
        7,
        9,
        11,
        13,
        15,
        17
      ],
      "name": "RootNode"
    },
    {
      "children": [
        4
      ],
      "matrix": [
        1000.0,
        0.0,
        0.0,
        0.0,
        0.0,
        14.804494854336728,
        -999.8904685026376,
        0.0,
        0.0,
        999.8904685026376,
        14.804494854336728,
        0.0,
        0.0,
        0.0,
        0.0,
        1.0
      ],
      "name": "Mesh_0025.rip"
    },
    {
      "mesh": 0,
      "name": "Mesh_0025.rip_mat0.019_0"
    },
    {
      "children": [
        6
      ],
      "matrix": [
        1000.0,
        0.0,
        0.0,
        0.0,
        0.0,
        14.804494854336728,
        -999.8904685026376,
        0.0,
        0.0,
        999.8904685026376,
        14.804494854336728,
        0.0,
        0.0,
        0.0,
        0.0,
        1.0
      ],
      "name": "Mesh_0019.rip"
    },
    {
      "mesh": 1,
      "name": "Mesh_0019.rip_mat0.020_0"
    },
    {
      "children": [
        8
      ],
      "matrix": [
        1000.0,
        0.0,
        0.0,
        0.0,
        0.0,
        14.804494854336728,
        -999.8904685026376,
        0.0,
        0.0,
        999.8904685026376,
        14.804494854336728,
        0.0,
        0.0,
        0.0,
        0.0,
        1.0
      ],
      "name": "Mesh_0017.rip"
    },
    {
      "mesh": 2,
      "name": "Mesh_0017.rip_mat0.021_0"
    },
    {
      "children": [
        10
      ],
      "matrix": [
        1000.0,
        0.0,
        0.0,
        0.0,
        0.0,
        14.804494854336728,
        -999.8904685026376,
        0.0,
        0.0,
        999.8904685026376,
        14.804494854336728,
        0.0,
        0.0,
        0.0,
        0.0,
        1.0
      ],
      "name": "Mesh_0016.rip"
    },
    {
      "mesh": 3,
      "name": "Mesh_0016.rip_mat0.022_0"
    },
    {
      "children": [
        12
      ],
      "matrix": [
        1000.0,
        0.0,
        0.0,
        0.0,
        0.0,
        14.804494854336728,
        -999.8904685026376,
        0.0,
        0.0,
        999.8904685026376,
        14.804494854336728,
        0.0,
        0.0,
        0.0,
        0.0,
        1.0
      ],
      "name": "Mesh_0044.rip"
    },
    {
      "mesh": 4,
      "name": "Mesh_0044.rip_mat0.023_0"
    },
    {
      "children": [
        14
      ],
      "matrix": [
        1000.0,
        0.0,
        0.0,
        0.0,
        0.0,
        14.804494854336728,
        -999.8904685026376,
        0.0,
        0.0,
        999.8904685026376,
        14.804494854336728,
        0.0,
        0.0,
        0.0,
        0.0,
        1.0
      ],
      "name": "Mesh_0041.rip"
    },
    {
      "mesh": 5,
      "name": "Mesh_0041.rip_mat0.024_0"
    },
    {
      "children": [
        16
      ],
      "matrix": [
        1000.0,
        0.0,
        0.0,
        0.0,
        0.0,
        14.804494854336728,
        -999.8904685026376,
        0.0,
        0.0,
        999.8904685026376,
        14.804494854336728,
        0.0,
        0.0,
        0.0,
        0.0,
        1.0
      ],
      "name": "Mesh_0023.rip"
    },
    {
      "mesh": 6,
      "name": "Mesh_0023.rip_mat0.025_0"
    },
    {
      "children": [
        18
      ],
      "matrix": [
        1000.0,
        0.0,
        0.0,
        0.0,
        0.0,
        14.804494854336728,
        -999.8904685026376,
        0.0,
        0.0,
        999.8904685026376,
        14.804494854336728,
        0.0,
        0.0,
        0.0,
        0.0,
        1.0
      ],
      "name": "Mesh_0021.rip"
    },
    {
      "mesh": 7,
      "name": "Mesh_0021.rip_mat0.026_0"
    }
  ],
  "samplers": [
    {
      "magFilter": 9729,
      "minFilter": 9987,
      "wrapS": 10497,
      "wrapT": 10497
    }
  ],
  "scene": 0,
  "scenes": [
    {
      "name": "Sketchfab_Scene",
      "nodes": [
        0
      ]
    }
  ],
  "textures": [
    {
      "sampler": 0,
      "source": 0
    },
    {
      "sampler": 0,
      "source": 1
    },
    {
      "sampler": 0,
      "source": 2
    },
    {
      "sampler": 0,
      "source": 3
    },
    {
      "sampler": 0,
      "source": 4
    },
    {
      "sampler": 0,
      "source": 5
    },
    {
      "sampler": 0,
      "source": 6
    },
    {
      "sampler": 0,
      "source": 7
    }
  ]
}
