{
  "accessors": [
    {
      "bufferView": 2,
      "componentType": 5126,
      "count": 1546,
      "max": [
        1.2615809440612793,
        1.492606520652771,
        3.4127354621887207
      ],
      "min": [
        -1.1912822723388672,
        -1.6340844631195068,
        -5.072430610656738
      ],
      "type": "VEC3"
    },
    {
      "bufferView": 2,
      "byteOffset": 18552,
      "componentType": 5126,
      "count": 1546,
      "max": [
        0.9997797012329102,
        0.9999227523803711,
        0.9991590976715088
      ],
      "min": [
        -0.9998997449874878,
        -0.9998493194580078,
        -0.558009147644043
      ],
      "type": "VEC3"
    },
    {
      "bufferView": 3,
      "componentType": 5126,
      "count": 1546,
      "max": [
        0.9971146583557129,
        0.9986117482185364,
        0.9998242855072021,
        1.0
      ],
      "min": [
        -0.9929686784744263,
        -0.9993873238563538,
        -0.9997449517250061,
        1.0
      ],
      "type": "VEC4"
    },
    {
      "bufferView": 1,
      "componentType": 5126,
      "count": 1546,
      "max": [
        0.9857533574104309,
        0.9921875
      ],
      "min": [
        0.0078125,
        0.0078125
      ],
      "type": "VEC2"
    },
    {
      "bufferView": 0,
      "componentType": 5125,
      "count": 7992,
      "type": "SCALAR"
    }
  ],
  "asset": {
    "extras": {
      "author": "Denis Shikunov (https://sketchfab.com/felo3113)",
      "license": "CC-BY-4.0 (http://creativecommons.org/licenses/by/4.0/)",
      "source": "https://sketchfab.com/3d-models/tattooed-arm-e88ae43f55db4a2bb893f478cc335266",
      "title": "Tattooed arm"
    },
    "generator": "Sketchfab-12.67.0",
    "version": "2.0"
  },
  "bufferViews": [
    {
      "buffer": 0,
      "byteLength": 31968,
      "name": "floatBufferViews",
      "target": 34963
    },
    {
      "buffer": 0,
      "byteLength": 12368,
      "byteOffset": 31968,
      "byteStride": 8,
      "name": "floatBufferViews",
      "target": 34962
    },
    {
      "buffer": 0,
      "byteLength": 37104,
      "byteOffset": 44336,
      "byteStride": 12,
      "name": "floatBufferViews",
      "target": 34962
    },
    {
      "buffer": 0,
      "byteLength": 24736,
      "byteOffset": 81440,
      "byteStride": 16,
      "name": "floatBufferViews",
      "target": 34962
    }
  ],
  "buffers": [
    {
      "byteLength": 106176,
      "uri": "scene.bin"
    }
  ],
  "images": [
    {
      "uri": "textures/Hand_baseColor.jpeg"
    },
    {
      "uri": "textures/Hand_metallicRoughness.png"
    },
    {
      "uri": "textures/Hand_normal.jpeg"
    }
  ],
  "materials": [
    {
      "doubleSided": true,
      "name": "Hand",
      "normalTexture": {
        "index": 2
      },
      "pbrMetallicRoughness": {
        "baseColorTexture": {
          "index": 0
        },
        "metallicRoughnessTexture": {
          "index": 1
        }
      }
    }
  ],
  "meshes": [
    {
      "name": "hand_Hand_0",
      "primitives": [
        {
          "attributes": {
            "NORMAL": 1,
            "POSITION": 0,
            "TANGENT": 2,
            "TEXCOORD_0": 3
          },
          "indices": 4,
          "material": 0,
          "mode": 4
        }
      ]
    }
  ],
  "nodes": [
    {
      "children": [
        1
      ],
      "matrix": [
        0.08676702529191971,
        0.0,
        0.0,
        0.0,
        0.0,
        1.926614985146451e-17,
        -0.08676702529191971,
        0.0,
        0.0,
        0.08676702529191971,
        1.926614985146451e-17,
        0.0,
        0.0,
        0.0,
        0.0,
        1.0
      ],
      "name": "Sketchfab_model"
    },
    {
      "children": [
        2
      ],
      "matrix": [
        1.0,
        0.0,
        0.0,
        0.0,
        0.0,
        0.0,
        1.0,
        0.0,
        0.0,
        -1.0,
        0.0,
        0.0,
        0.0,
        0.0,
        0.0,
        1.0
      ],
      "name": "Tatu.fbx"
    },
    {
      "children": [
        3
      ],
      "name": "RootNode"
    },
    {
      "children": [
        4
      ],
      "matrix": [
        1.0,
        0.0,
        0.0,
        0.0,
        -0.0,
        -1.6292067939183141e-07,
        -0.9999999999999868,
        0.0,
        0.0,
        0.9999999999999868,
        -1.6292067939183141e-07,
        0.0,
        -0.11044672131538391,
        1.6405023336410522,
        -0.3487175703048706,
        1.0
      ],
      "name": "hand"
    },
    {
      "mesh": 0,
      "name": "hand_Hand_0"
    }
  ],
  "samplers": [
    {
      "magFilter": 9729,
      "minFilter": 9987,
      "wrapS": 10497,
      "wrapT": 10497
    }
  ],
  "scene": 0,
  "scenes": [
    {
      "name": "Sketchfab_Scene",
      "nodes": [
        0
      ]
    }
  ],
  "textures": [
    {
      "sampler": 0,
      "source": 0
    },
    {
      "sampler": 0,
      "source": 1
    },
    {
      "sampler": 0,
      "source": 2
    }
  ]
}
