{
  "accessors": [
    {
      "bufferView": 2,
      "componentType": 5126,
      "count": 46799,
      "max": [
        0.24285225570201874,
        0.1938241720199585,
        0.5039523839950562
      ],
      "min": [
        -0.24700875580310822,
        -0.23118853569030762,
        -0.2950984835624695
      ],
      "type": "VEC3"
    },
    {
      "bufferView": 2,
      "byteOffset": 561588,
      "componentType": 5126,
      "count": 46799,
      "max": [
        0.9999513626098633,
        0.9999802112579346,
        0.9999905824661255
      ],
      "min": [
        -0.9999384880065918,
        -0.9999738335609436,
        -0.9999708533287048
      ],
      "type": "VEC3"
    },
    {
      "bufferView": 1,
      "componentType": 5126,
      "count": 46799,
      "max": [
        0.5445556640625,
        0.9996337890625
      ],
      "min": [
        0.0003662109375,
        0.4945068359375
      ],
      "type": "VEC2"
    },
    {
      "bufferView": 0,
      "componentType": 5125,
      "count": 152676,
      "type": "SCALAR"
    }
  ],
  "asset": {
    "extras": {
      "author": "TheDarkSunProject (https://sketchfab.com/darksunproject)",
      "license": "CC-BY-4.0 (http://creativecommons.org/licenses/by/4.0/)",
      "source": "https://sketchfab.com/3d-models/zach-from-tahiti-felixs-master-tattoo-sd-da6b0d2717df4266940968e055b6b6cf",
      "title": "Zach from Tahiti Felix's Master Tattoo SD"
    },
    "generator": "Sketchfab-12.64.0",
    "version": "2.0"
  },
  "bufferViews": [
    {
      "buffer": 0,
      "byteLength": 610704,
      "name": "floatBufferViews",
      "target": 34963
    },
    {
      "buffer": 0,
      "byteLength": 374392,
      "byteOffset": 610704,
      "byteStride": 8,
      "name": "floatBufferViews",
      "target": 34962
    },
    {
      "buffer": 0,
      "byteLength": 1123176,
      "byteOffset": 985096,
      "byteStride": 12,
      "name": "floatBufferViews",
      "target": 34962
    }
  ],
  "buffers": [
    {
      "byteLength": 2108272,
      "uri": "scene.bin"
    }
  ],
  "extensionsUsed": [
    "KHR_materials_unlit"
  ],
  "images": [
    {
      "uri": "textures/material_0_baseColor.jpeg"
    }
  ],
  "materials": [
    {
      "doubleSided": true,
      "extensions": {
        "KHR_materials_unlit": {}
      },
      "name": "material_0",
      "pbrMetallicRoughness": {
        "baseColorTexture": {
          "index": 0
        },
        "metallicFactor": 0.0
      }
    }
  ],
  "meshes": [
    {
      "name": "Object_0",
      "primitives": [
        {
          "attributes": {
            "NORMAL": 1,
            "POSITION": 0,
            "TEXCOORD_0": 2
          },
          "indices": 3,
          "material": 0,
          "mode": 4
        }
      ]
    }
  ],
  "nodes": [
    {
      "children": [
        1
      ],
      "matrix": [
        1.0,
        0.0,
        0.0,
        0.0,
        0.0,
        -0.09740612655878045,
        -0.9952447414398193,
        0.0,
        0.0,
        0.9952447414398193,
        -0.09740612655878045,
        0.0,
        0.0,
        -0.001323152682743969,
        0.010260642506182194,
        1.0
      ],
      "name": "Sketchfab_model"
    },
    {
      "children": [
        2
      ],
      "name": "model_mesh.obj.cleaner"
    },
    {
      "mesh": 0,
      "name": "Object_2"
    }
  ],
  "samplers": [
    {
      "magFilter": 9729,
      "minFilter": 9987,
      "wrapS": 10497,
      "wrapT": 10497
    }
  ],
  "scene": 0,
  "scenes": [
    {
      "name": "Sketchfab_Scene",
      "nodes": [
        0
      ]
    }
  ],
  "textures": [
    {
      "sampler": 0,
      "source": 0
    }
  ]
}
